HIERARCHY
ROOT Hips
{
	OFFSET 0.000000 0.000000 0.000000 
	CHANNELS 6 Xposition Yposition Zposition Yrotation Zrotation Xrotation 
	JOINT Lumbar
	{
		OFFSET 0.000000 0.000000 0.000000 
		CHANNELS 3 Zrotation Xrotation Yrotation
		JOINT Neck
		{
			OFFSET 0.000000 0.445665 0.000000 
			CHANNELS 3 Zrotation Xrotation Yrotation
			End Site
			{
				OFFSET 0.000000 0.227535 0.000000 
			}
		}
		JOINT RightShoulder
		{
			OFFSET 0.019635 0.377685 0.194865 
			CHANNELS 3 Zrotation Xrotation Yrotation
			JOINT RightElbow
			{
				OFFSET 0.000000 -0.243375 0.000000 
				CHANNELS 2 Zrotation Yrotation
				JOINT RightWrist
				{
					OFFSET 0.000000 -0.264825 0.000000 
					CHANNELS 2 Zrotation Xrotation
					End Site
					{
						OFFSET 0.006600 -0.176220 0.000990 
					}
				}
			}
		}
		JOINT LeftShoulder
		{
			OFFSET 0.019635 0.377685 -0.194865 
			CHANNELS 3 Zrotation Xrotation Yrotation
			JOINT LeftElbow
			{
				OFFSET 0.000000 -0.243375 0.000000 
				CHANNELS 2 Zrotation Yrotation
				JOINT LeftWrist
				{
					OFFSET 0.000000 -0.264825 0.000000 
					CHANNELS 2 Zrotation Xrotation
					End Site
					{
						OFFSET 0.006600 -0.176220 -0.000990 
					}
				}
			}
		}
	}
	JOINT RightHip
	{
		OFFSET 0.052140 -0.069960 0.075570 
		CHANNELS 3 Zrotation Xrotation Yrotation
		JOINT RightKnee
		{
			OFFSET 0.000000 -0.402270 0.000000 
			CHANNELS 1 Zrotation
			JOINT RightAnkle
			{
				OFFSET 0.000000 -0.404085 0.000000 
				CHANNELS 3 Zrotation Xrotation Yrotation
				End Site
				{
					OFFSET 0.204105 -0.089430 0.008415 
				}
			}
		}
	}
	JOINT LeftHip
	{
		OFFSET 0.052140 -0.069960 -0.075570 
		CHANNELS 3 Zrotation Xrotation Yrotation
		JOINT LeftKnee
		{
			OFFSET 0.000000 -0.402270 0.000000 
			CHANNELS 1 Zrotation
			JOINT LeftAnkle
			{
				OFFSET 0.000000 -0.404085 0.000000 
				CHANNELS 3 Zrotation Xrotation Yrotation
				End Site
				{
					OFFSET 0.204105 -0.089430 -0.008415 
				}
			}
		}
	}
}
MOTION
Frames: 31
Frame Time: 0.02
-0.00071 -0.00033 0.00065 28.41026 -31.50799 -6.31483 47.82342 2.97312 -4.51437 7.15289 -0.96539 -0.88167 -12.81484 -8.14118 -15.3269 27.54706 138.16937 16.20509 10.72348 -28.01534 13.81093 -4.87368 44.96335 -104.36888 14.01293 -2.28178 44.53669 0.06392 -10.37701 -19.43699 -6.02868 -1.97823 -3.19432 46.2526 0.38798 0.89488 -24.77025 -6.22158 2.82412 3.56106
-0.00149 -0.0004 0.00083 28.56519 -31.46867 -6.34157 47.88115 2.92689 -4.49129 7.34874 -0.99489 -0.88329 -11.92404 -8.36579 -13.84867 27.69861 133.30737 15.01668 9.77497 -25.91392 13.73083 -5.13569 45.12616 -103.89808 13.70027 -2.25606 44.51649 0.05101 -10.51601 -19.42166 -6.03195 -1.98249 -3.1942 46.25395 0.50851 1.40278 -24.77089 -6.21511 2.74703 3.52591
-0.00227 -0.00047 0.001 28.71973 -31.4294 -6.36825 47.93874 2.88077 -4.46827 7.54404 -1.02431 -0.88491 -11.0353 -8.58966 -12.37426 27.85005 128.46049 13.83211 8.82937 -23.81723 13.6508 -5.39743 45.2887 -103.42831 13.38835 -2.23038 44.49634 0.03813 -10.65461 -19.40636 -6.03522 -1.98676 -3.19408 46.25528 0.62879 1.90964 -24.77152 -6.20867 2.67012 3.49084
-0.00305 -0.00054 0.00118 28.8742 -31.39019 -6.39492 47.99631 2.83468 -4.44526 7.7393 -1.05372 -0.88653 -10.1471 -8.81358 -10.90046 28.0012 123.61347 12.64739 7.88378 -21.72195 13.57092 -5.65874 45.45104 -102.95888 13.07662 -2.20473 44.4762 0.02526 -10.79319 -19.39107 -6.03848 -1.99101 -3.19395 46.25663 0.74897 2.41606 -24.77215 -6.20222 2.59325 3.45579
-0.00382 -0.00061 0.00135 29.029 -31.35095 -6.42163 48.05401 2.78849 -4.4222 7.93505 -1.08321 -0.88815 -9.25717 -9.03825 -9.42315 28.15233 118.75132 11.45878 6.9353 -19.6227 13.49101 -5.92009 45.61358 -102.48861 12.76426 -2.17905 44.45602 0.01236 -10.93215 -19.37577 -6.04174 -1.99526 -3.19382 46.25799 0.86938 2.92335 -24.77279 -6.19573 2.51623 3.42067
-0.0046 -0.00067 0.00153 29.183 -31.31161 -6.44824 48.11134 2.74255 -4.39929 8.12939 -1.11244 -0.88976 -8.37102 -9.26041 -7.95494 28.30439 113.93683 10.28279 5.99579 -17.53162 13.41074 -6.18262 45.77609 -102.01991 12.45329 -2.15337 44.43592 -0.00048 -11.06998 -19.36048 -6.04501 -1.99956 -3.19374 46.25927 0.98936 3.42927 -24.7734 -6.18938 2.43955 3.38568
-0.00538 -0.00074 0.0017 29.33846 -31.27254 -6.47503 48.16937 2.69616 -4.37606 8.3264 -1.14218 -0.89138 -7.4781 -9.48739 -6.47005 28.45441 109.03195 9.08275 5.03931 -15.42614 13.33131 -6.44255 45.93847 -101.54853 12.13983 -2.12772 44.41569 -0.01343 -11.20996 -19.34517 -6.04826 -2.00375 -3.19354 46.26072 1.11006 3.93735 -24.77407 -6.18277 2.36227 3.35049
-0.00616 -0.00081 0.00188 29.49256 -31.2332 -6.50166 48.22676 2.65017 -4.35318 8.52087 -1.17145 -0.893 -6.59167 -9.70993 -5.00051 28.60633 104.21003 7.90477 4.09841 -13.33443 13.25107 -6.70477 46.10097 -101.07971 11.82871 -2.10205 44.39557 -0.02627 -11.3479 -19.32988 -6.05153 -2.00804 -3.19345 46.262 1.23011 4.4435 -24.77469 -6.1764 2.28553 3.31547
-0.00694 -0.00088 0.00205 29.64511 -31.19356 -6.52807 48.28338 2.60467 -4.33053 8.71265 -1.20016 -0.8946 -5.7117 -9.92708 -3.54912 28.76064 99.48907 6.75377 3.17641 -11.25643 13.16992 -6.97044 46.26374 -100.6134 11.52011 -2.07633 44.3756 -0.03901 -11.48363 -19.31459 -6.05484 -2.01244 -3.19349 46.26313 1.3494 4.94736 -24.77524 -6.1703 2.20945 3.28069
-0.0077 -0.00095 0.00222 29.80692 -31.15573 -6.5557 48.34445 2.55635 -4.30595 8.92113 -1.23211 -0.89628 -4.79007 -10.17538 -1.99141 28.90142 94.18573 5.44755 2.14523 -9.09006 13.09423 -7.21824 46.42534 -100.13074 11.196 -2.05079 44.35483 -0.05241 -11.63294 -19.29925 -6.05794 -2.01619 -3.19281 46.26529 1.47315 5.46461 -24.77613 -6.16261 2.12959 3.2446
-0.00851 -0.00102 0.00241 29.94896 -31.11406 -6.58076 48.39609 2.51402 -4.28584 9.09358 -1.2572 -0.89779 -3.95938 -10.35784 -0.65941 29.07054 90.11243 4.46885 1.34476 -7.11653 13.00692 -7.50236 46.58914 -99.68388 10.90529 -2.02494 44.33569 -0.06437 -11.75301 -19.28405 -6.06148 -2.02133 -3.19364 46.26517 1.58741 5.9534 -24.77634 -6.15829 2.05771 3.21127
-0.00941 -0.00108 0.00266 30.03803 -31.06189 -6.59885 48.42189 2.48794 -4.2747 9.17285 -1.26367 -0.89875 -3.35577 -10.35876 0.05831 29.31981 89.44146 4.39852 1.18164 -5.62511 12.88829 -7.89852 46.76104 -99.32546 10.70174 -1.99771 44.32154 -0.0729 -11.79743 -19.26909 -6.06615 -2.03013 -3.19862 46.25971 1.67597 6.36484 -24.7746 -6.16312 2.00796 3.18546
-0.01036 -0.00113 0.00294 30.10687 -31.00587 -6.61434 48.43819 2.46795 -4.26854 9.21484 -1.26325 -0.89953 -2.84812 -10.29366 0.54777 29.59693 90.00459 4.65621 1.2502 -4.33704 12.75806 -8.32867 46.93462 -99.00502 10.53273 -1.97031 44.30898 -0.07993 -11.81185 -19.25432 -6.07127 -2.04034 -3.20511 46.25185 1.75486 6.74721 -24.77222 -6.17135 1.96624 3.16246
-0.01128 -0.00118 0.0032 30.18432 -30.95153 -6.63099 48.45882 2.44525 -4.26237 9.27021 -1.26581 -0.90041 -2.31055 -10.25938 1.13924 29.85999 89.98023 4.75628 1.20894 -2.9853 12.63254 -8.73536 47.10627 -98.67327 10.3506 -1.94331 44.29528 -0.08727 -11.83669 -19.23954 -6.07621 -2.05007 -3.21094 46.24443 1.83802 7.14289 -24.77021 -6.1781 1.92064 3.13818
-0.01222 -0.00123 0.00348 30.2648 -30.89736 -6.64781 48.47943 2.42217 -4.24716 9.34071 -1.26884 -0.90121 -1.7133 -10.22173 1.74032 30.12972 90.05441 4.88922 1.18401 -1.5084 12.50862 -9.17662 47.28347 -98.31551 10.15691 -1.91482 44.28311 -0.09601 -11.8741 -19.22439 -6.08104 -2.05926 -3.21676 46.23956 1.92198 7.5396 -24.76783 -6.18461 1.87583 3.11379
-0.01313 -0.00128 0.00372 30.33345 -30.84209 -6.66356 48.49775 2.40152 -4.25136 9.37065 -1.26946 -0.90214 -1.2657 -10.17522 2.26376 30.39128 90.23648 5.0363 1.18409 -0.34567 12.37955 -9.5531 47.4487 -98.02216 9.99641 -1.88954 44.2684 -0.10167 -11.87939 -19.2101 -6.08621 -2.06971 -3.22285 46.22908 2.00162 7.9254 -24.76612 -6.19239 1.8315 3.09043
-0.01394 -0.00135 0.00382 30.38077 -30.7832 -6.67768 48.51297 2.38441 -4.31314 9.29965 -1.26346 -0.9034 -1.18583 -10.12283 2.65988 30.63072 90.22135 5.09638 1.15815 0.04376 12.23159 -9.74932 47.58722 -97.88705 9.91143 -1.87212 44.24404 -0.09757 -11.79318 -19.19789 -6.09203 -2.08494 -3.23017 46.20144 2.07475 8.30423 -24.76593 -6.20313 1.78451 3.06819
-0.01472 -0.00142 0.00386 30.41573 -30.72368 -6.69069 48.52608 2.36987 -4.39337 9.18885 -1.25568 -0.9048 -1.25767 -10.06359 2.98016 30.85949 90.29933 5.16566 1.15483 0.11512 12.08041 -9.8778 47.7122 -97.81769 9.86025 -1.85818 44.21756 -0.09069 -11.67741 -19.18658 -6.09821 -2.10109 -3.23757 46.16874 2.1433 8.67013 -24.76651 -6.21499 1.7381 3.04707
-0.01551 -0.00148 0.00393 30.45214 -30.66533 -6.70374 48.53954 2.35524 -4.46162 9.09491 -1.24966 -0.90618 -1.27401 -10.00564 3.31452 31.08851 90.47174 5.26334 1.16829 0.30389 11.93546 -10.03289 47.83917 -97.72456 9.7984 -1.84333 44.1934 -0.08617 -11.58208 -19.17502 -6.10432 -2.11575 -3.24438 46.13974 2.21195 9.03137 -24.76706 -6.22611 1.69276 3.02611
-0.01631 -0.00156 0.00399 30.50531 -30.60279 -6.71859 48.55516 2.33619 -4.54492 9.00454 -1.23894 -0.90737 -1.23551 -9.9522 3.72625 31.33837 90.14491 5.2437 1.08227 0.60294 11.76938 -10.20719 47.98447 -97.60559 9.71726 -1.82552 44.16324 -0.07708 -11.45685 -19.16281 -6.11002 -2.13497 -3.25351 46.10444 2.28863 9.43593 -24.76631 -6.23824 1.64207 3.00247
-0.01708 -0.00162 0.00406 30.52105 -30.54928 -6.72952 48.566 2.32699 -4.60156 8.89816 -1.23823 -0.90899 -1.34779 -9.8897 3.96268 31.54138 90.82011 5.45534 1.19742 0.59588 11.64744 -10.32444 48.08748 -97.55728 9.68476 -1.81486 44.14545 -0.07673 -11.38634 -19.15214 -6.11669 -2.14493 -3.25787 46.08149 2.34763 9.74775 -24.76837 -6.24856 1.60255 2.98462
-0.01772 -0.00164 0.00419 30.43544 -30.51746 -6.72955 48.56314 2.34327 -4.577 8.75439 -1.26089 -0.91183 -1.82398 -9.79478 3.72666 31.62236 94.61857 6.39844 1.93526 -0.14785 11.64242 -10.30536 48.08494 -97.67351 9.7709 -1.82156 44.15899 -0.10235 -11.48228 -19.14583 -6.12553 -2.12889 -3.24869 46.09068 2.35884 9.80514 -24.7786 -6.25301 1.59384 2.98255
-0.01833 -0.00165 0.00432 30.31291 -30.49545 -6.72574 48.55565 2.36956 -4.52547 8.59685 -1.29459 -0.9151 -2.44912 -9.693 3.31906 31.65578 99.35143 7.55618 2.86119 -1.19336 11.68335 -10.23064 48.03907 -97.86125 9.90621 -1.83559 44.18573 -0.13662 -11.63282 -19.14099 -6.13543 -2.10358 -3.23476 46.11318 2.35247 9.77006 -24.79151 -6.2557 1.5963 2.98626
-0.01895 -0.00167 0.00445 30.20806 -30.47115 -6.72393 48.55115 2.39194 -4.48837 8.44739 -1.32631 -0.91814 -3.0155 -9.60068 2.99599 31.70739 103.3938 8.54961 3.65064 -2.1199 11.70672 -10.17758 48.00754 -98.02535 10.02343 -1.84727 44.20851 -0.16618 -11.7534 -19.13531 -6.14512 -2.08262 -3.22321 46.13161 2.3543 9.77845 -24.8028 -6.25958 1.59354 2.98727
-0.01957 -0.00169 0.00458 30.0989 -30.43748 -6.72101 48.54337 2.41169 -4.443 8.28783 -1.34511 -0.92132 -3.54919 -9.48139 2.64336 31.77204 108.53717 9.81885 4.65151 -2.98104 11.7148 -10.13551 47.99714 -98.1537 10.1231 -1.85502 44.22229 -0.19898 -11.89525 -19.13042 -6.15363 -2.06101 -3.21072 46.14117 2.35517 9.7803 -24.81582 -6.26182 1.59138 2.9886
-0.02018 -0.0017 0.00471 29.99018 -30.42589 -6.71948 48.54068 2.43927 -4.40791 8.14782 -1.39352 -0.92431 -4.18479 -9.41665 2.31142 31.79969 111.63969 10.57274 5.26244 -4.04574 11.76713 -10.06069 47.93386 -98.37349 10.27156 -1.87252 44.25835 -0.22706 -12.00543 -19.12417 -6.16487 -2.03867 -3.1991 46.17285 2.3538 9.77394 -24.82586 -6.26707 1.59066 2.99064
-0.02077 -0.00165 0.0048 29.89146 -30.471 -6.72315 48.55903 2.48584 -4.41039 8.05464 -1.52035 -0.92665 -5.06075 -9.50446 2.08735 31.72585 108.6094 9.78127 4.69914 -5.59807 11.9174 -9.88751 47.72489 -98.82011 10.53347 -1.91642 44.34939 -0.24083 -12.02217 -19.11429 -6.18331 -2.01531 -3.19065 46.259 2.35151 9.7678 -24.82711 -6.28098 1.59084 2.99315
-0.02135 -0.00157 0.00489 29.79468 -30.53832 -6.72831 48.58161 2.53994 -4.42361 7.98376 -1.67669 -0.92879 -6.03405 -9.6469 1.88755 31.61872 103.54807 8.47829 3.74725 -7.34295 12.11266 -9.68713 47.46646 -99.35711 10.84395 -1.96966 44.46296 -0.24952 -12.00461 -19.10288 -6.20447 -1.99168 -3.18329 46.36759 2.34739 9.75652 -24.82524 -6.29799 1.59216 2.99619
-0.02194 -0.00151 0.00499 29.69708 -30.5967 -6.73247 48.59843 2.59067 -4.43008 7.90979 -1.81995 -0.93102 -6.96525 -9.76491 1.67293 31.53379 99.5852 7.45321 3.00578 -8.99895 12.29642 -9.51437 47.23709 -99.8582 11.13857 -2.01772 44.56846 -0.25984 -11.99721 -19.09183 -6.22442 -1.96908 -3.17574 46.46816 2.34352 9.74758 -24.82476 -6.31362 1.59319 2.99905
-0.02248 -0.00145 0.00504 29.59743 -30.6506 -6.73776 48.63125 2.64156 -4.44339 7.80564 -1.96229 -0.93323 -7.8934 -9.88315 1.47345 31.41644 94.89169 6.23737 2.12459 -10.67312 12.44572 -9.27738 46.97721 -100.34151 11.41027 -2.06984 44.66551 -0.27286 -12.01184 -19.08226 -6.24426 -1.94261 -3.16686 46.56009 2.34158 9.7357 -24.82456 -6.32904 1.59366 3.00186
-0.02313 -0.00138 0.00519 29.50364 -30.71895 -6.74123 48.63183 2.69377 -4.44549 7.76974 -2.11328 -0.93545 -8.84821 -10.01125 1.24391 31.36046 91.25385 5.30265 1.44405 -12.34917 12.67475 -9.1657 46.7712 -100.88051 11.73864 -2.11582 44.78503 -0.27952 -11.97524 -19.06921 -6.265 -1.92389 -3.16093 46.67506 2.33533 9.72951 -24.82291 -6.34569 1.59539 3.00481
